<?xml version="1.0" standalone="no"?>
<!DOCTYPE svg PUBLIC "-//W3C//DTD SVG 1.1//EN" "http://www.w3.org/Graphics/SVG/1.1/DTD/svg11.dtd" >
<svg xmlns="http://www.w3.org/2000/svg">
<metadata>Generated by IcoMoon</metadata>
<defs>
<font id="zeniconm" horiz-adv-x="1024">
<font-face units-per-em="1024" ascent="960" descent="-64" />
<missing-glyph horiz-adv-x="1024" />
<glyph unicode="&#x20;" d="" horiz-adv-x="512" />
<glyph unicode="&#xe600;" d="M554.667 725.334l36.48-145.92 144.597 41.429 64.043-110.933-108.16-104.491 108.16-104.576-64-110.933-144.64 41.429-36.48-146.005h-128l-36.48 146.005-144.64-41.429-64.043 110.933 108.16 104.576-108.117 104.491 64 110.933 144.64-41.429 36.48 145.92h128zM554.667 810.667h-128c-39.168 0-73.301-26.667-82.731-64.683l-15.104-60.245-59.733 17.067c-7.851 2.261-15.744 3.328-23.552 3.328-29.867 0-58.368-15.787-73.856-42.667l-64-110.933c-19.584-33.963-13.525-76.885 14.592-104.021l44.672-43.136-44.715-43.307c-28.16-27.179-34.219-70.101-14.635-104.021l64.085-110.933c15.488-26.923 43.989-42.667 73.856-42.667 7.808 0 15.701 1.067 23.552 3.243l59.691 17.109 15.104-60.373c9.472-37.76 43.605-64.427 82.773-64.427h128c39.168 0 73.301 26.667 82.731 64.683l15.104 60.331 59.691-17.067c7.851-2.261 15.744-3.285 23.552-3.285 29.867 0 58.368 15.787 73.856 42.667l64 110.933c19.584 33.963 13.525 76.8-14.592 104.021l-44.672 43.221 44.672 43.221c28.16 27.179 34.176 70.144 14.592 104.021l-64 110.933c-15.573 26.923-43.989 42.667-73.899 42.667-7.851 0-15.701-1.067-23.509-3.243l-59.733-17.109-15.104 60.288c-9.387 37.717-43.52 64.384-82.688 64.384zM490.667 490.667c47.104 0 85.333-38.187 85.333-85.333 0-47.104-38.229-85.333-85.333-85.333s-85.333 38.229-85.333 85.333c0 47.147 38.229 85.333 85.333 85.333zM490.667 533.334c-70.571 0-128-57.429-128-128s57.429-128 128-128 128 57.429 128 128-57.429 128-128 128z" />
<glyph unicode="&#xf002;" d="M0 463.238q0 81.714 31.714 156.286t85.714 128.571 128.571 85.714 156.286 31.714 156.286-31.714 128.571-85.714 85.714-128.571 31.714-156.286q0-125.714-70.857-228l196-196q21.143-21.143 21.143-51.429 0-29.714-21.714-51.429t-51.429-21.714q-30.857 0-51.429 21.714l-196 195.429q-102.286-70.857-228-70.857-81.714 0-156.286 31.714t-128.571 85.714-85.714 128.571-31.714 156.286zM146.286 463.238q0-105.714 75.143-180.857t180.857-75.143 180.857 75.143 75.143 180.857-75.143 180.857-180.857 75.143-180.857-75.143-75.143-180.857z" horiz-adv-x="951" />
<glyph unicode="&#xf007;" d="M0 135.81q0 30.286 2 59.143t8 62.286 15.143 62 24.571 55.714 35.429 46.286 48.857 30.571 63.714 11.429q5.143 0 24-12.286t42.571-27.429 61.714-27.429 76.286-12.286 76.286 12.286 61.714 27.429 42.571 27.429 24 12.286q34.857 0 63.714-11.429t48.857-30.571 35.429-46.286 24.571-55.714 15.143-62 8-62.286 2-59.143q0-68.571-41.714-108.286t-110.857-39.714h-499.429q-69.143 0-110.857 39.714t-41.714 108.286zM182.857 646.096q0 90.857 64.286 155.143t155.143 64.286 155.143-64.286 64.286-155.143-64.286-155.143-155.143-64.286-155.143 64.286-64.286 155.143z" horiz-adv-x="805" />
<glyph unicode="&#xf00c;" d="M8.831 405.89q0 25.97 18.179 44.149l88.298 88.298q18.179 18.179 44.149 18.179t44.149-18.179l190.879-191.528 425.908 426.558q18.179 18.179 44.149 18.179t44.149-18.179l88.298-88.298q18.179-18.179 18.179-44.149t-18.179-44.149l-558.355-558.355q-18.179-18.179-44.149-18.179t-44.149 18.179l-323.327 323.327q-18.179 18.179-18.179 44.149z" />
<glyph unicode="&#xf013;" d="M19.313 355.898v144.134q0 7.791 5.193 14.932t12.336 8.441l120.761 18.179q9.090 29.866 25.321 59.731-25.97 37.007-69.47 89.597-6.491 7.791-6.491 15.581 0 6.491 5.843 14.932 16.88 23.372 63.952 69.795t61.354 46.421q8.441 0 16.88-6.491l89.597-69.47q28.567 14.932 59.082 24.671 10.389 88.298 18.827 120.761 4.544 18.179 23.372 18.179h144.134q9.090 0 15.907-5.518t7.466-13.959l18.179-119.462q31.813-10.389 58.433-24.022l92.193 69.47q5.843 5.843 15.581 5.843 8.441 0 16.231-6.491 83.753-77.261 107.127-110.373 4.544-5.193 4.544-14.283 0-7.791-5.193-14.932-9.739-13.634-33.112-43.175t-35.060-45.773q16.88-32.462 26.62-63.627l118.813-18.179q8.441-1.299 13.634-8.116t5.193-15.258v-144.134q0-7.791-5.193-14.932t-12.986-8.441l-120.111-18.179q-12.336-35.060-25.321-59.082 22.724-32.462 69.47-89.597 6.491-7.791 6.491-16.231t-5.843-14.932q-17.53-24.022-64.276-70.119t-61.029-46.097q-7.791 0-16.88 5.843l-89.597 70.119q-28.567-14.932-59.082-24.671-10.389-88.298-18.827-120.761-4.544-18.179-23.372-18.179h-144.134q-9.090 0-15.907 5.518t-7.466 13.959l-18.179 119.462q-31.813 10.389-58.433 24.022l-91.543-69.47q-6.491-5.843-16.231-5.843-9.090 0-16.231 7.142-81.806 74.014-107.127 109.074-4.544 6.491-4.544 14.932 0 7.791 5.193 14.932 9.739 13.634 33.112 43.175t35.060 45.773q-17.53 32.462-26.62 64.276l-118.813 17.53q-8.441 1.299-13.634 8.116t-5.193 15.258zM351.73 426.667q0-68.821 48.693-117.514t117.514-48.693 117.514 48.693 48.693 117.514-48.693 117.514-117.514 48.693-117.514-48.693-48.693-117.514z" />
<glyph unicode="&#xf014;" d="M0 664.381v36.571q0 8 5.143 13.143t13.143 5.143h176.571l40 95.429q8.571 21.143 30.857 36t45.143 14.857h182.857q22.857 0 45.143-14.857t30.857-36l40-95.429h176.571q8 0 13.143-5.143t5.143-13.143v-36.571q0-8-5.143-13.143t-13.143-5.143h-54.857v-541.714q0-47.429-26.857-82t-64.571-34.571h-475.429q-37.714 0-64.571 33.429t-26.857 80.857v544h-54.857q-8 0-13.143 5.143t-5.143 13.143zM146.286 104.381q0-12.571 4-23.143t8.286-15.429 6-4.857h475.429q1.714 0 6 4.857t8.286 15.429 4 23.143v541.714h-512v-541.714zM219.429 188.953v329.143q0 8 5.143 13.143t13.143 5.143h36.571q8 0 13.143-5.143t5.143-13.143v-329.143q0-8-5.143-13.143t-13.143-5.143h-36.571q-8 0-13.143 5.143t-5.143 13.143zM274.286 719.238h256l-27.429 66.857q-4 5.143-9.714 6.286h-181.143q-5.714-1.143-9.714-6.286zM365.714 188.953v329.143q0 8 5.143 13.143t13.143 5.143h36.571q8 0 13.143-5.143t5.143-13.143v-329.143q0-8-5.143-13.143t-13.143-5.143h-36.571q-8 0-13.143 5.143t-5.143 13.143zM512 188.953v329.143q0 8 5.143 13.143t13.143 5.143h36.571q8 0 13.143-5.143t5.143-13.143v-329.143q0-8-5.143-13.143t-13.143-5.143h-36.571q-8 0-13.143 5.143t-5.143 13.143z" horiz-adv-x="805" />
<glyph unicode="&#xf017;" d="M18.386 426.667q0 135.694 66.872 250.287t181.465 181.465 250.287 66.872 250.287-66.872 181.465-181.465 66.872-250.287-66.872-250.287-181.465-181.465-250.287-66.872-250.287 66.872-181.465 181.465-66.872 250.287zM163.818 426.667q0-96.089 47.396-177.246t128.551-128.551 177.246-47.396 177.246 47.396 128.551 128.551 47.396 177.246-47.396 177.246-128.551 128.551-177.246 47.396-177.246-47.396-128.551-128.551-47.396-177.246zM350.803 364.339v41.551q0 9.090 5.843 14.932t14.932 5.843h145.432v228.536q0 9.090 5.843 14.932t14.932 5.843h41.551q9.090 0 14.932-5.843t5.843-14.932v-290.863q0-9.090-5.843-14.932t-14.932-5.843h-207.76q-9.090 0-14.932 5.843t-5.843 14.932z" />
<glyph unicode="&#xf021;" d="M-39.385 32.821v275.692q0 16 11.692 27.692t27.692 11.692h275.692q16 0 27.692-11.692t11.692-27.692-11.692-27.692l-84.308-84.308q43.692-40.615 99.077-62.77t115.077-22.153q82.461 0 153.846 40t114.462 110.154q6.77 10.461 32.616 72 4.923 14.154 18.462 14.154h118.154q8 0 13.846-5.847t5.847-13.846q0-3.077-0.615-4.308-39.384-164.923-164.923-267.385t-294.154-102.462q-89.847 0-173.847 33.847t-149.846 96.615l-79.384-79.384q-11.692-11.692-27.692-11.692t-27.692 11.692-11.692 27.692zM-28.307 525.129v4.308q40 164.923 166.154 267.385t295.385 102.462q89.847 0 174.77-34.154t150.769-96.308l80 79.384q11.692 11.692 27.692 11.692t27.692-11.692 11.692-27.692v-275.692q0-16-11.692-27.692t-27.692-11.692h-275.692q-16 0-27.692 11.692t-11.692 27.692 11.692 27.692l84.923 84.923q-91.076 84.308-214.77 84.308-82.461 0-153.846-40t-114.462-110.154q-6.77-10.461-32.616-72-4.923-14.154-18.462-14.154h-122.461q-8 0-13.846 5.847t-5.847 13.846z" />
<glyph unicode="&#xf02b;" d="M0 554.667v237.714q0 29.714 21.714 51.429t51.429 21.714h237.714q30.286 0 66.857-15.143t58.286-36.857l408.571-408q21.143-22.286 21.143-52 0-30.286-21.143-51.429l-280.571-281.143q-22.286-21.143-52-21.143-30.286 0-51.429 21.143l-408.571 409.143q-21.714 21.143-36.857 57.714t-15.143 66.857zM109.714 682.667q0-30.286 21.429-51.714t51.714-21.429 51.714 21.429 21.429 51.714-21.429 51.714-51.714 21.429-51.714-21.429-21.429-51.714z" />
<glyph unicode="&#xf02c;" d="M0 554.667v237.714q0 29.714 21.714 51.429t51.429 21.714h237.714q30.286 0 66.857-15.143t58.286-36.857l408.571-408q21.143-22.286 21.143-52 0-30.286-21.143-51.429l-280.571-281.143q-22.286-21.143-52-21.143-30.286 0-51.429 21.143l-408.571 409.143q-21.714 21.143-36.857 57.714t-15.143 66.857zM109.714 682.667q0-30.286 21.429-51.714t51.714-21.429 51.714 21.429 21.429 51.714-21.429 51.714-51.714 21.429-51.714-21.429-21.429-51.714zM402.286 865.524h128q30.286 0 66.857-15.143t58.286-36.857l408.571-408q21.143-22.286 21.143-52 0-30.286-21.143-51.429l-280.571-281.143q-22.286-21.143-52-21.143-20.571 0-33.714 8t-30.286 25.714l268.571 268.571q21.143 21.143 21.143 51.429 0 29.714-21.143 52l-408.571 408q-21.714 21.714-58.286 36.857t-66.857 15.143z" horiz-adv-x="1097" />
<glyph unicode="&#xf03e;" d="M0 79.238v694.857q0 37.714 26.857 64.571t64.571 26.857h914.286q37.714 0 64.571-26.857t26.857-64.571v-694.857q0-37.714-26.857-64.571t-64.571-26.857h-914.286q-37.714 0-64.571 26.857t-26.857 64.571zM73.143 79.238q0-7.429 5.429-12.857t12.857-5.429h914.286q7.429 0 12.857 5.429t5.429 12.857v694.857q0 7.429-5.429 12.857t-12.857 5.429h-914.286q-7.429 0-12.857-5.429t-5.429-12.857v-694.857zM146.286 134.096v109.714l182.857 182.857 91.429-91.429 292.571 292.571 237.714-237.714v-256h-804.571zM146.286 609.524q0 45.714 32 77.714t77.714 32 77.714-32 32-77.714-32-77.714-77.714-32-77.714 32-32 77.714z" horiz-adv-x="1097" />
<glyph unicode="&#xf040;" d="M0-12.19v237.714l475.429 475.429 237.714-237.714-475.429-475.429h-237.714zM73.143 134.096h73.143v-73.143h61.143l52 52-134.286 134.286-52-52v-61.143zM170.286 280.381q0-12.571 12.571-12.571 5.714 0 9.714 4l309.714 309.714q4 4 4 9.714 0 12.571-12.571 12.571-5.714 0-9.714-4l-309.714-309.714q-4-4-4-9.714zM512 737.524l94.857 94.286q20.571 21.714 51.429 21.714 30.286 0 52-21.714l134.286-133.714q21.143-22.286 21.143-52 0-30.286-21.143-51.429l-94.857-94.857z" />
<glyph unicode="&#xf044;" d="M0 225.524v475.429q0 68 48.286 116.286t116.286 48.286h475.429q36 0 66.857-14.286 8.571-4 10.286-13.143 1.714-9.714-5.143-16.571l-28-28q-8-8-18.286-4.571-13.143 3.429-25.714 3.429h-475.429q-37.714 0-64.571-26.857t-26.857-64.571v-475.429q0-37.714 26.857-64.571t64.571-26.857h475.429q37.714 0 64.571 26.857t26.857 64.571v72q0 7.429 5.143 12.571l36.571 36.571q8.571 8.571 20 4t11.429-16.571v-108.571q0-68-48.286-116.286t-116.286-48.286h-475.429q-68 0-116.286 48.286t-48.286 116.286zM365.714 207.238v164.571l384 384 164.571-164.571-384-384h-164.571zM420.571 316.953h54.857v-54.857h32l66.286 66.286-86.857 86.857-66.286-66.286v-32zM539.429 454.096q9.143-9.143 18.857 0.571l200 200q9.714 9.714 0.571 18.857t-18.857-0.571l-200-200q-9.714-9.714-0.571-18.857zM786.286 792.381l52.571 52.571q16 16 38.857 16t38.857-16l86.857-86.857q16-16 16-38.857t-16-38.857l-52.571-52.571z" />
<glyph unicode="&#xf046;" d="M0 225.524v475.429q0 68 48.286 116.286t116.286 48.286h475.429q36 0 66.857-14.286 8.571-4 10.286-13.143 1.714-9.714-5.143-16.571l-28-28q-5.714-5.714-13.143-5.714-1.714 0-5.143 1.143-13.143 3.429-25.714 3.429h-475.429q-37.714 0-64.571-26.857t-26.857-64.571v-475.429q0-37.714 26.857-64.571t64.571-26.857h475.429q37.714 0 64.571 26.857t26.857 64.571v145.143q0 7.429 5.143 12.571l36.571 36.571q5.714 5.714 13.143 5.714 3.429 0 6.857-1.714 11.429-4.571 11.429-16.571v-181.714q0-68-48.286-116.286t-116.286-48.286h-475.429q-68 0-116.286 48.286t-48.286 116.286zM146.857 499.81q0 18.857 13.714 32.571l62.857 62.857q13.714 13.714 32.571 13.714t32.571-13.714l150.286-150.286 369.714 369.714q13.714 13.714 32.571 13.714t32.571-13.714l62.857-62.857q13.714-13.714 13.714-32.571t-13.714-32.571l-465.143-465.143q-13.714-13.714-32.571-13.714t-32.571 13.714l-245.714 245.714q-13.714 13.714-13.714 32.571z" horiz-adv-x="951" />
<glyph unicode="&#xf04b;" d="M0 6.096v841.143q0 14.857 9.429 20.571t22.571-1.714l758.857-421.714q13.143-7.429 13.143-17.714t-13.143-17.714l-758.857-421.714q-13.143-7.429-22.571-1.714t-9.429 20.571z" horiz-adv-x="805" />
<glyph unicode="&#xf04c;" d="M0 24.381v804.571q0 14.857 10.857 25.714t25.714 10.857h292.571q14.857 0 25.714-10.857t10.857-25.714v-804.571q0-14.857-10.857-25.714t-25.714-10.857h-292.571q-14.857 0-25.714 10.857t-10.857 25.714zM512 24.381v804.571q0 14.857 10.857 25.714t25.714 10.857h292.571q14.857 0 25.714-10.857t10.857-25.714v-804.571q0-14.857-10.857-25.714t-25.714-10.857h-292.571q-14.857 0-25.714 10.857t-10.857 25.714z" />
<glyph unicode="&#xf053;" d="M88 463.238q0 14.857 10.857 25.714l424 424q10.857 10.857 25.714 10.857t25.714-10.857l94.857-94.857q10.857-10.857 10.857-25.714t-10.857-25.714l-303.429-303.429 303.429-303.429q10.857-10.857 10.857-25.714t-10.857-25.714l-94.857-94.857q-10.857-10.857-25.714-10.857t-25.714 10.857l-424 424q-10.857 10.857-10.857 25.714z" horiz-adv-x="731" />
<glyph unicode="&#xf054;" d="M51.429 134.096q0 14.857 10.857 25.714l303.429 303.429-303.429 303.429q-10.857 10.857-10.857 25.714t10.857 25.714l94.857 94.857q10.857 10.857 25.714 10.857t25.714-10.857l424-424q10.857-10.857 10.857-25.714t-10.857-25.714l-424-424q-10.857-10.857-25.714-10.857t-25.714 10.857l-94.857 94.857q-10.857 10.857-10.857 25.714z" horiz-adv-x="731" />
<glyph unicode="&#xf059;" d="M0 426.667q0 119.429 58.857 220.286t159.714 159.714 220.286 58.857 220.286-58.857 159.714-159.714 58.857-220.286-58.857-220.286-159.714-159.714-220.286-58.857-220.286 58.857-159.714 159.714-58.857 220.286zM238.286 597.524q-8.571-13.714 4.571-24l75.429-57.143q4-3.429 10.857-3.429 9.143 0 14.286 6.857 30.286 38.857 49.143 52.571 19.429 13.714 49.143 13.714 27.429 0 48.857-14.857t21.429-33.714q0-21.714-11.429-34.857t-38.857-25.714q-36-16-66-49.429t-30-71.714v-20.571q0-8 5.143-13.143t13.143-5.143h109.714q8 0 13.143 5.143t5.143 13.143q0 10.857 12.286 28.286t31.143 28.286q18.286 10.286 28 16.286t26.286 20 25.429 27.429 16 34.571 7.143 46.286q0 50.286-31.714 93.143t-79.143 66.286-97.143 23.429q-138.857 0-212-121.714zM365.714 152.381q0-8 5.143-13.143t13.143-5.143h109.714q8 0 13.143 5.143t5.143 13.143v109.714q0 8-5.143 13.143t-13.143 5.143h-109.714q-8 0-13.143-5.143t-5.143-13.143v-109.714z" />
<glyph unicode="&#xf05a;" d="M0 426.667q0 119.429 58.857 220.286t159.714 159.714 220.286 58.857 220.286-58.857 159.714-159.714 58.857-220.286-58.857-220.286-159.714-159.714-220.286-58.857-220.286 58.857-159.714 159.714-58.857 220.286zM292.571 152.381q0-8 5.143-13.143t13.143-5.143h256q8 0 13.143 5.143t5.143 13.143v91.429q0 8-5.143 13.143t-13.143 5.143h-54.857v292.571q0 8-5.143 13.143t-13.143 5.143h-182.857q-8 0-13.143-5.143t-5.143-13.143v-91.429q0-8 5.143-13.143t13.143-5.143h54.857v-182.857h-54.857q-8 0-13.143-5.143t-5.143-13.143v-91.429zM365.714 664.381q0-8 5.143-13.143t13.143-5.143h109.714q8 0 13.143 5.143t5.143 13.143v91.429q0 8-5.143 13.143t-13.143 5.143h-109.714q-8 0-13.143-5.143t-5.143-13.143v-91.429z" />
<glyph unicode="&#xf05c;" d="M0 426.667q0 119.429 58.857 220.286t159.714 159.714 220.286 58.857 220.286-58.857 159.714-159.714 58.857-220.286-58.857-220.286-159.714-159.714-220.286-58.857-220.286 58.857-159.714 159.714-58.857 220.286zM128 426.667q0-84.571 41.714-156t113.143-113.143 156-41.714 156 41.714 113.143 113.143 41.714 156-41.714 156-113.143 113.143-156 41.714-156-41.714-113.143-113.143-41.714-156zM245.143 335.238q0 7.429 5.714 13.143l78.286 78.286-78.286 78.286q-5.714 5.714-5.714 13.143t5.714 13.143l83.429 83.429q5.714 5.714 13.143 5.714t13.143-5.714l78.286-78.286 78.286 78.286q5.714 5.714 13.143 5.714t13.143-5.714l83.429-83.429q5.714-5.714 5.714-13.143t-5.714-13.143l-78.286-78.286 78.286-78.286q5.714-5.714 5.714-13.143t-5.714-13.143l-83.429-83.429q-5.714-5.714-13.143-5.714t-13.143 5.714l-78.286 78.286-78.286-78.286q-5.714-5.714-13.143-5.714t-13.143 5.714l-83.429 83.429q-5.714 5.714-5.714 13.143z" />
<glyph unicode="&#xf05d;" d="M0 426.667q0 119.429 58.857 220.286t159.714 159.714 220.286 58.857 220.286-58.857 159.714-159.714 58.857-220.286-58.857-220.286-159.714-159.714-220.286-58.857-220.286 58.857-159.714 159.714-58.857 220.286zM128 426.667q0-84.571 41.714-156t113.143-113.143 156-41.714 156 41.714 113.143 113.143 41.714 156-41.714 156-113.143 113.143-156 41.714-156-41.714-113.143-113.143-41.714-156zM197.714 426.667q0 14.857 10.857 25.714l58.286 58.286q10.857 10.857 25.714 10.857t25.714-10.857l84-84 157.143 157.143q10.857 10.857 25.714 10.857t25.714-10.857l58.286-58.286q10.857-10.857 10.857-25.714t-10.857-25.714l-241.143-241.143q-10.857-10.857-25.714-10.857t-25.714 10.857l-168 168q-10.857 10.857-10.857 25.714z" />
<glyph unicode="&#xf060;" d="M36.571 390.096q0 29.714 21.143 52l372 371.429q21.714 21.714 52 21.714 29.714 0 51.429-21.714l42.857-42.286q21.714-21.714 21.714-52t-21.714-52l-167.429-167.429h402.286q29.714 0 48.286-21.429t18.571-51.714v-73.143q0-30.286-18.571-51.714t-48.286-21.429h-402.286l167.429-168q21.714-20.571 21.714-51.429t-21.714-51.429l-42.857-43.429q-21.143-21.143-51.429-21.143-29.714 0-52 21.143l-372 372.571q-21.143 21.143-21.143 51.429z" />
<glyph unicode="&#xf061;" d="M0 353.524v73.143q0 30.286 18.571 51.714t48.286 21.429h402.286l-167.429 168q-21.714 20.571-21.714 51.429t21.714 51.429l42.857 42.857q21.714 21.714 51.429 21.714 30.286 0 52-21.714l372-372q21.143-20 21.143-51.429 0-30.857-21.143-52l-372-372q-22.286-21.143-52-21.143-29.143 0-51.429 21.143l-42.857 42.857q-21.714 21.714-21.714 52t21.714 52l167.429 167.429h-402.286q-29.714 0-48.286 21.429t-18.571 51.714z" />
<glyph unicode="&#xf06e;" d="M0 390.096q0 19.429 11.429 39.429 80 130.857 215.143 210.286t285.429 79.429 285.429-79.429 215.143-210.286q11.429-20 11.429-39.429t-11.429-39.429q-80-131.429-215.143-210.571t-285.429-79.143-285.429 79.429-215.143 210.286q-11.429 20-11.429 39.429zM73.143 390.096q76-117.143 190.571-186.571t248.286-69.429 248.286 69.429 190.571 186.571q-86.857 134.857-217.714 201.714 34.857-59.429 34.857-128.571 0-105.714-75.143-180.857t-180.857-75.143-180.857 75.143-75.143 180.857q0 69.143 34.857 128.571-130.857-66.857-217.714-201.714zM338.286 463.238q0-11.429 8-19.429t19.429-8 19.429 8 8 19.429q0 49.143 34.857 84t84 34.857q11.429 0 19.429 8t8 19.429-8 19.429-19.429 8q-71.429 0-122.571-51.143t-51.143-122.571z" />
<glyph unicode="&#xf070;" d="M0 390.096q0 21.714 11.429 39.429 87.429 134.286 217.143 212t283.429 77.714q50.857 0 102.857-9.714l30.857 55.429q5.714 9.143 16 9.143 2.857 0 10.286-3.429t17.714-8.857 18.857-10.571 18-10.571 11.143-6.571q9.143-5.714 9.143-15.429 0-4-0.571-5.143-60-107.429-180-323.429t-180.571-324l-28-50.857q-5.714-9.143-16-9.143-6.857 0-76.571 40-9.143 5.714-9.143 16 0 6.857 25.143 49.714-81.714 37.143-150.571 98.857t-119.143 140q-11.429 17.714-11.429 39.429zM73.143 390.096q95.429-147.429 244-214.286l44.571 80.571q-49.714 36-77.714 90.857t-28 116q0 69.143 34.857 128.571-130.857-66.857-217.714-201.714zM338.286 463.238q0-11.429 8-19.429t19.429-8 19.429 8 8 19.429q0 49.143 34.857 84t84 34.857q11.429 0 19.429 8t8 19.429-8 19.429-19.429 8q-71.429 0-122.571-51.143t-51.143-122.571zM512 60.953l42.286 75.429q121.143 10.286 224.286 78.286t172.286 175.429q-65.714 102.286-161.143 168l36 64q54.286-36.571 104.286-87.429t82.571-105.143q11.429-19.429 11.429-39.429t-11.429-39.429q-22.286-36.571-62.286-82.857-85.714-98.286-198.571-152.571t-239.714-54.286zM603.429 224.381l160 286.857q4.571-25.714 4.571-48 0-79.429-45.143-144.857t-119.429-94z" />
<glyph unicode="&#xf074;" d="M0 152.381v109.714q0 8 5.143 13.143t13.143 5.143h128q27.429 0 49.714 8.571t39.429 25.714 29.143 35.143 25.714 44.286q18.286 35.429 44.571 97.714 16.571 37.714 28.286 63.429t30.857 60 36.571 57.143 42.286 47.429 51.429 39.143 60.857 24 73.143 9.429h146.286v109.714q0 8 5.143 13.143t13.143 5.143q6.857 0 13.714-5.714l182.286-182.286q5.143-5.143 5.143-13.143t-5.143-13.143l-182.857-182.857q-5.143-5.143-13.143-5.143-7.429 0-12.857 5.429t-5.429 12.857v109.714h-146.286q-27.429 0-49.714-8.571t-39.429-25.714-29.143-35.143-25.714-44.286q-18.286-35.429-44.571-97.714-16.571-37.714-28.286-63.429t-30.857-60-36.571-57.143-42.286-47.429-51.429-39.143-60.857-24-73.143-9.429h-128q-8 0-13.143 5.143t-5.143 13.143zM0 664.381v109.714q0 8 5.143 13.143t13.143 5.143h128q142.857 0 234.286-128.571-34.286-52.571-78.286-156-12.571 25.714-21.143 41.429t-23.143 36.286-29.143 32.286-36 20-46.571 8.286h-128q-8 0-13.143 5.143t-5.143 13.143zM424.571 262.667q33.714 53.143 77.714 156 12.571-25.714 21.143-41.429t23.143-36.286 29.143-32.286 36-20 46.571-8.286h146.286v109.714q0 8 5.143 13.143t13.143 5.143q6.857 0 13.714-5.714l182.286-182.286q5.143-5.143 5.143-13.143t-5.143-13.143l-182.857-182.857q-5.143-5.143-13.143-5.143-7.429 0-12.857 5.429t-5.429 12.857v109.714q-18.286 0-48.571-0.286t-46.286-0.571-41.714 0.571-40.571 2.857-36.571 6-36 10.571-33.143 16.286-33.714 22.857-31.429 30.571-32 39.714z" />
<glyph unicode="&#xf077;" d="M51.429 204.096q0 15.143 10.857 26l424 423.429q10.857 10.857 25.714 10.857t25.714-10.857l424-423.429q10.857-10.857 10.857-26t-10.857-26l-94.857-94.286q-10.857-10.857-25.714-10.857t-25.714 10.857l-303.429 303.429-303.429-303.429q-10.857-10.857-25.714-10.857t-25.714 10.857l-94.857 94.286q-10.857 10.857-10.857 26z" />
<glyph unicode="&#xf078;" d="M51.429 502.953q0 15.143 10.857 26l94.857 94.286q10.857 10.857 25.714 10.857t25.714-10.857l303.429-303.429 303.429 303.429q10.857 10.857 25.714 10.857t25.714-10.857l94.857-94.286q10.857-10.857 10.857-26t-10.857-26l-424-423.429q-10.857-10.857-25.714-10.857t-25.714 10.857l-424 423.429q-10.857 10.857-10.857 26z" />
<glyph unicode="&#xf07b;" d="M0 188.953v548.571q0 52.571 37.714 90.286t90.286 37.714h182.857q52.571 0 90.286-37.714t37.714-90.286v-18.286h384q52.571 0 90.286-37.714t37.714-90.286v-402.286q0-52.571-37.714-90.286t-90.286-37.714h-694.857q-52.571 0-90.286 37.714t-37.714 90.286z" horiz-adv-x="951" />
<glyph unicode="&#xf096;" d="M0 225.524v475.429q0 68 48.286 116.286t116.286 48.286h475.429q68 0 116.286-48.286t48.286-116.286v-475.429q0-68-48.286-116.286t-116.286-48.286h-475.429q-68 0-116.286 48.286t-48.286 116.286zM73.143 225.524q0-37.714 26.857-64.571t64.571-26.857h475.429q37.714 0 64.571 26.857t26.857 64.571v475.429q0 37.714-26.857 64.571t-64.571 26.857h-475.429q-37.714 0-64.571-26.857t-26.857-64.571v-475.429z" horiz-adv-x="805" />
<glyph unicode="&#xf0a2;" d="M0 134.096q108.571 92 164 227.143t55.429 284.857q0 94.286 54.857 149.714t150.857 66.857q-4.571 10.286-4.571 21.143 0 22.857 16 38.857t38.857 16 38.857-16 16-38.857q0-10.857-4.571-21.143 96-11.429 150.857-66.857t54.857-149.714q0-149.714 55.429-284.857t164-227.143q0-29.714-21.714-51.429t-51.429-21.714h-256q0-60.571-42.857-103.429t-103.429-42.857-103.429 42.857-42.857 103.429h-256q-29.714 0-51.429 21.714t-21.714 51.429zM104.571 134.096h741.714q-93.714 103.429-140.857 235.143t-47.143 276.857q0 146.286-182.857 146.286t-182.857-146.286q0-145.143-47.143-276.857t-140.857-235.143zM374.857 60.953q0-41.714 29.429-71.143t71.143-29.429q9.143 0 9.143 9.143t-9.143 9.143q-33.714 0-58 24.286t-24.286 58q0 9.143-9.143 9.143t-9.143-9.143z" horiz-adv-x="951" />
<glyph unicode="&#xf0a4;" d="M0 134.096v365.714q0 30.286 21.429 51.714t51.714 21.429h164.571q5.714 0 12.286 2.571t13.429 8 12.857 10.286 13.714 12.857 11.714 12.286 10.857 12.286 8 9.714q37.143 42.286 57.143 73.714 7.429 12 18.857 35.429t21.143 41.143 23.143 36 31.429 28.286 39.714 10q71.429 0 118-38.286t46.571-108q0-38.857-12.571-73.143h213.714q59.429 0 102.857-43.429t43.429-102.286q0-60-43.143-103.429t-103.143-43.429h-96.571q-2.286-35.429-21.143-68 1.714-12 1.714-24.571 0-57.714-34.286-101.714 0.571-79.429-48.571-125.429t-129.714-46q-76 0-184 39.429-93.714 33.714-127.429 33.714h-164.571q-30.286 0-51.714 21.429t-21.429 51.714zM73.143 170.667q0-14.857 10.857-25.714t25.714-10.857 25.714 10.857 10.857 25.714-10.857 25.714-25.714 10.857-25.714-10.857-10.857-25.714zM219.429 134.096h18.286q41.143 0 95.429-18.286t110.571-36.571 102.571-18.286q108 0 108 95.429 0 14.857-2.857 32 17.143 9.143 27.143 30t10 42-10.286 39.429q30.286 28.571 30.286 68 0 14.286-5.714 31.714t-14.286 27.143h189.143q29.714 0 51.429 21.714t21.714 51.429q0 29.143-22.286 51.143t-50.857 22h-329.143q0 11.429 8.571 27.714t18.857 31.429 18.857 38.857 8.571 48.286q0 38.286-25.429 55.714t-66 17.429q-13.714 0-51.429-79.429-13.714-25.143-21.143-37.143-22.857-36.571-64-82.857-40.571-46.286-57.714-60.571-39.429-32.571-80-32.571h-18.286v-365.714z" />
<glyph unicode="&#xf0ac;" d="M0 426.667q0 119.429 58.857 220.286t159.714 159.714 220.286 58.857 220.286-58.857 159.714-159.714 58.857-220.286-58.857-220.286-159.714-159.714-220.286-58.857-220.286 58.857-159.714 159.714-58.857 220.286zM129.143 620.381q4-4 6.857-4.571 2.286-0.571 2.857-5.143t1.429-6.286 6.571 1.714q5.143-4.571 1.714-10.857 0.571 0.571 25.143-15.429 10.857-9.714 12-12 1.714-6.286-5.714-10.286-0.571 1.143-5.143 5.143t-5.143 2.286q-1.714-2.857 0.286-10.571t6-7.143q-4 0-5.429-9.143t-1.429-20.286-0.571-13.429l1.143-0.571q-1.714-6.857 3.143-19.714t12.286-11.143q-7.429-1.714 11.429-24.571 3.429-4.571 4.571-5.143 1.714-1.143 6.857-4.286t8.571-5.714 5.714-6q2.286-2.857 5.714-12.857t8-13.429q-1.143-3.429 5.429-11.429t6-13.143q-0.571 0-1.429-0.571t-1.429-0.571q1.714-4 8.857-8t8.857-7.429q0.571-1.714 1.143-5.714t1.714-6.286 4.571-1.143q1.143 11.429-13.714 35.429-8.571 14.286-9.714 16.571-1.714 2.857-3.143 8.857t-2.571 8.286q1.143 0 3.429-0.857t4.857-2 4.286-2.286 1.143-1.714q-1.714-4 1.143-10t6.857-10.571 9.714-10.857 6.857-7.429q3.429-3.429 8-11.143t0-7.714q5.143 0 11.429-5.714t9.714-11.429q2.857-4.571 4.571-14.857t2.857-13.714q1.143-4 4.857-7.714t7.143-5.429l9.143-4.571t7.429-4q2.857-1.143 10.571-6t12.286-6.571q5.714-2.286 9.143-2.286t8.286 1.429 7.714 2q8.571 1.143 16.571-8.571t12-12q20.571-10.857 31.429-6.286-1.143-0.571 0.286-4.286t4.571-8.857 5.143-8.286 3.143-4.857q2.857-3.429 10.286-8.571t10.286-8.571q3.429 2.286 4 5.143-1.714-4.571 4-11.429t10.286-5.714q8 1.714 8 18.286-17.714-8.571-28 10.286 0 0.571-1.429 3.143t-2.286 4.857-1.429 4.857 0 4.286 2.857 1.714q5.143 0 5.714 2t-1.143 7.143-2.286 7.429q-0.571 4.571-6.286 11.429t-6.857 8.571q-2.857-5.143-9.143-4.571t-9.143 5.143q0-0.571-0.857-3.143t-0.857-3.714q-7.429 0-8.571 0.571 0.571 1.714 1.429 10t2 12.857q0.571 2.286 3.143 6.857t4.286 8.286 2.286 7.143-2.571 5.429-10 1.429q-10.857-0.571-14.857-11.429-0.571-1.714-1.714-6t-2.857-6.571-5.143-4q-4-1.714-13.714-1.143t-13.714 2.857q-7.429 4.571-12.857 16.571t-5.429 21.143q0 5.714 1.429 15.143t1.714 14.286-3.143 14q1.714 1.143 5.143 5.429t5.714 6q1.143 0.571 2.571 0.857t2.571 0 2.286 0.857 1.714 3.429q-0.571 0.571-2.286 1.714-1.714 1.714-2.286 1.714 4-1.714 16.286 0.857t15.714-0.857q8.571-6.286 12.571 1.143 0 0.571-1.429 5.429t-0.286 7.714q2.857-15.429 16.571-5.143 1.714-1.714 8.857-2.857t10-2.857q1.714-1.143 4-3.143t3.143-2.571 2.857 0.286 4.857 3.714q5.714-8 6.857-13.714 6.286-22.857 10.857-25.143 4-1.714 6.286-1.143t2.571 5.429 0 8-0.857 7.143l-0.571 4.571v10.286l-0.571 4.571q-8.571 1.714-10.571 6.857t0.857 10.571 8.571 10.571q0.571 0.571 4.571 2t8.857 3.714 7.143 4.571q12 10.857 8.571 20 4 0 6.286 5.143-0.571 0-2.857 1.714t-4.286 2.857-2.571 1.143q5.143 2.857 1.143 9.143 2.857 1.714 4.286 6.286t4.286 5.714q5.143-6.857 12-1.143 4 4.571 0.571 9.143 2.857 4 11.714 6t10.571 5.429q4-1.143 4.571 1.143t0.571 6.857 1.714 6.857q2.286 2.857 8.571 5.143t7.429 2.857l9.714 6.286q1.714 2.286 0 2.286 10.286-1.143 17.714 6.286 5.714 6.286-3.429 11.429 1.714 3.429-1.714 5.429t-8.571 3.143q1.714 0.571 6.571 0.286t6 0.857q8.571 5.714-4 9.143-9.714 2.857-24.571-6.857-1.143-0.571-5.429-5.429t-7.714-5.429q1.143 0 2.571 2.857t2.857 6.286 2 4q3.429 4 12.571 8.571 8 3.429 29.714 6.857 19.429 4.571 29.143-6.286-1.143 1.143 5.429 7.429t8.286 6.857q1.714 1.143 8.571 2.571t8.571 4.286l1.143 12.571q-6.857-0.571-10 4t-3.714 12q0-1.143-3.429-4.571 0 4-2.571 4.571t-6.571-0.571-5.143-0.571q-5.714 1.714-8.571 4.286t-4.571 9.429-2.286 8.571q-1.143 2.857-5.429 6t-5.429 6q-0.571 1.143-1.429 3.143t-1.714 3.714-2.286 3.143-3.143 1.429-4-2.857-4.286-5.714-2.571-2.857q-1.714 1.143-3.429 0.857t-2.571-0.571-2.571-1.714-2.857-2q-1.714-1.143-4.857-1.714t-4.857-1.143q8.571 2.857-0.571 6.286-5.714 2.286-9.143 1.714 5.143 2.286 4.286 6.857t-4.857 8h2.857q-0.571 2.286-4.857 4.857t-10 4.857-7.429 3.429q-4.571 2.857-19.429 5.429t-18.857 0.286q-2.857-3.429-2.571-6t2.286-8 2-7.143q0.571-3.429-3.143-7.429t-3.714-6.857q0-4 8-8.857t5.714-12.286q-1.714-4.571-9.143-9.143t-9.143-6.857q-2.857-4.571-0.857-10.571t6-9.429q1.143-1.143 0.857-2.286t-2-2.571-3.143-2.286-3.714-2l-1.714-1.143q-6.286-2.857-11.714 3.429t-7.714 14.857q-4 14.286-9.143 17.143-13.143 4.571-16.571-0.571-2.857 7.429-23.429 14.857-14.286 5.143-33.143 2.286 3.429 0.571 0 8.571-4 8.571-10.857 6.857 1.714 3.429 2.286 10t0.571 7.714q1.714 7.429 6.857 13.143 0.571 0.571 4 4.857t5.429 7.714 0.286 3.429q20-2.286 28.571 6.286 2.857 2.857 6.571 9.714t6 9.714q5.143 3.429 8 3.143t8.286-3.143 8.286-2.857q8-0.571 8.857 6.286t-4.286 11.429q6.857-0.571 1.714 9.714-2.857 4-4.571 5.143-6.857 2.286-15.429-2.857-4.571-2.286 1.143-4.571-0.571 0.571-5.429-6t-9.429-10-9.143 2.857q-0.571 0.571-3.143 7.714t-5.429 7.714q-4.571 0-9.143-8.571 1.714 4.571-6.286 8.571t-13.714 4.571q10.857 6.857-4.571 15.429-4 2.286-11.714 2.857t-11.143-2.286q-2.857-4-3.143-6.571t2.857-4.571 6-3.143 6.571-2.286 4.857-1.714q8-5.714 4.571-8-1.143-0.571-4.857-2t-6.571-2.571-3.429-2.286q-1.714-2.286 0-8t-1.143-8q-2.857 2.857-5.143 10t-4 9.429q4-5.143-14.286-3.429l-5.714 0.571q-2.286 0-9.143-1.143t-11.714-0.571-7.714 4.571q-2.286 4.571 0 11.429 0.571 2.286 2.286 1.143-2.286 1.714-6.286 5.429t-5.714 4.857q-26.286-8.571-53.714-23.429 3.429-0.571 6.857 0.571 2.857 1.143 7.429 3.714t5.714 3.143q19.429 8 24 4l2.857 2.857q8-9.143 11.429-14.286-4 2.286-17.143 0.571-11.429-3.429-12.571-6.857 4-6.857 2.857-10.286-2.286 1.714-6.571 5.714t-8.286 6.286-8.571 2.857q-9.143 0-12.571-0.571-83.429-45.714-134.286-126.857zM501.143 75.81q0-3.429 1.143-9.143 117.714 20.571 200.571 108-1.714 1.714-7.143 2.571t-7.143 2q-10.286 4-13.714 4.571 0.571 4-1.429 7.429t-4.571 5.143-7.143 4.571-6.286 4q-1.143 1.143-4 3.429t-4 3.143-4.286 2.571-4.857 1.143-5.714-0.571l-1.714-0.571q-1.714-0.571-3.143-1.429t-3.143-1.714-2.286-1.714 0-1.429q-12 9.714-20.571 12.571-2.857 0.571-6.286 3.143t-6 4-5.714 0.857-6.571-4q-2.857-2.857-3.429-8.571t-1.143-7.429q-4 2.857 0 10t1.143 10.571q-1.714 3.429-6 2.571t-6.857-2.571-6.571-4.857-5.143-3.714-4.857-3.143-4.857-4.286q-1.714-2.286-3.429-6.857t-2.857-6.286q-1.143 2.286-6.571 3.714t-5.429 3.143q1.143-5.714 2.286-20t2.857-21.714q4-17.714-6.857-27.429-15.429-14.286-16.571-22.857-2.286-12.571 6.857-14.857 0-4-4.571-11.714t-4-12.286z" />
<glyph unicode="&#xf0ae;" d="M0 97.524v146.286q0 14.857 10.857 25.714t25.714 10.857h950.857q14.857 0 25.714-10.857t10.857-25.714v-146.286q0-14.857-10.857-25.714t-25.714-10.857h-950.857q-14.857 0-25.714 10.857t-10.857 25.714zM0 390.096v146.286q0 14.857 10.857 25.714t25.714 10.857h950.857q14.857 0 25.714-10.857t10.857-25.714v-146.286q0-14.857-10.857-25.714t-25.714-10.857h-950.857q-14.857 0-25.714 10.857t-10.857 25.714zM0 682.667v146.286q0 14.857 10.857 25.714t25.714 10.857h950.857q14.857 0 25.714-10.857t10.857-25.714v-146.286q0-14.857-10.857-25.714t-25.714-10.857h-950.857q-14.857 0-25.714 10.857t-10.857 25.714zM365.714 426.667h585.143v73.143h-585.143v-73.143zM585.143 134.096h365.714v73.143h-365.714v-73.143zM731.429 719.238h219.429v73.143h-219.429v-73.143z" />
<glyph unicode="&#xf0c9;" d="M0 97.524v73.143q0 14.857 10.857 25.714t25.714 10.857h804.571q14.857 0 25.714-10.857t10.857-25.714v-73.143q0-14.857-10.857-25.714t-25.714-10.857h-804.571q-14.857 0-25.714 10.857t-10.857 25.714zM0 390.096v73.143q0 14.857 10.857 25.714t25.714 10.857h804.571q14.857 0 25.714-10.857t10.857-25.714v-73.143q0-14.857-10.857-25.714t-25.714-10.857h-804.571q-14.857 0-25.714 10.857t-10.857 25.714zM0 682.667v73.143q0 14.857 10.857 25.714t25.714 10.857h804.571q14.857 0 25.714-10.857t10.857-25.714v-73.143q0-14.857-10.857-25.714t-25.714-10.857h-804.571q-14.857 0-25.714 10.857t-10.857 25.714z" />
<glyph unicode="&#xf0ca;" d="M0 134.096q0 45.714 32 77.714t77.714 32 77.714-32 32-77.714-32-77.714-77.714-32-77.714 32-32 77.714zM0 426.667q0 45.714 32 77.714t77.714 32 77.714-32 32-77.714-32-77.714-77.714-32-77.714 32-32 77.714zM0 719.238q0 45.714 32 77.714t77.714 32 77.714-32 32-77.714-32-77.714-77.714-32-77.714 32-32 77.714zM292.571 79.238v109.714q0 7.429 5.429 12.857t12.857 5.429h694.857q7.429 0 12.857-5.429t5.429-12.857v-109.714q0-7.429-5.429-12.857t-12.857-5.429h-694.857q-7.429 0-12.857 5.429t-5.429 12.857zM292.571 371.81v109.714q0 7.429 5.429 12.857t12.857 5.429h694.857q7.429 0 12.857-5.429t5.429-12.857v-109.714q0-7.429-5.429-12.857t-12.857-5.429h-694.857q-7.429 0-12.857 5.429t-5.429 12.857zM292.571 664.381v109.714q0 7.429 5.429 12.857t12.857 5.429h694.857q7.429 0 12.857-5.429t5.429-12.857v-109.714q0-7.429-5.429-12.857t-12.857-5.429h-694.857q-7.429 0-12.857 5.429t-5.429 12.857z" />
<glyph unicode="&#xf0d7;" d="M0 536.381q0 14.857 10.857 25.714t25.714 10.857h512q14.857 0 25.714-10.857t10.857-25.714-10.857-25.714l-256-256q-10.857-10.857-25.714-10.857t-25.714 10.857l-256 256q-10.857 10.857-10.857 25.714z" horiz-adv-x="585" />
<glyph unicode="&#xf0d8;" d="M0 243.81q0 14.857 10.857 25.714l256 256q10.857 10.857 25.714 10.857t25.714-10.857l256-256q10.857-10.857 10.857-25.714t-10.857-25.714-25.714-10.857h-512q-14.857 0-25.714 10.857t-10.857 25.714z" horiz-adv-x="585" />
<glyph unicode="&#xf0d9;" d="M36.571 426.667q0 14.857 10.857 25.714l256 256q10.857 10.857 25.714 10.857t25.714-10.857 10.857-25.714v-512q0-14.857-10.857-25.714t-25.714-10.857-25.714 10.857l-256 256q-10.857 10.857-10.857 25.714z" horiz-adv-x="366" />
<glyph unicode="&#xf0da;" d="M0 170.667v512q0 14.857 10.857 25.714t25.714 10.857 25.714-10.857l256-256q10.857-10.857 10.857-25.714t-10.857-25.714l-256-256q-10.857-10.857-25.714-10.857t-25.714 10.857-10.857 25.714z" horiz-adv-x="366" />
<glyph unicode="&#xf0e5;" d="M0 426.667q0 99.429 68.571 183.714t186.286 133.143 257.143 48.857 257.143-48.857 186.286-133.143 68.571-183.714-68.571-183.714-186.286-133.143-257.143-48.857q-40 0-82.857 4.571-113.143-100-262.857-138.286-28-8-65.143-12.571h-2.857q-8.571 0-15.429 6t-9.143 15.714v0.571q-1.714 2.286-0.286 6.857t1.143 5.714 2.571 5.429l3.429 5.143t4 4.857 4.571 5.143q4 4.571 17.714 19.714t19.714 21.714 17.714 22.571 18.571 29.143 15.429 33.714 14.857 43.429q-89.714 50.857-141.429 125.714t-51.714 160.571zM73.143 426.667q0-64 40.857-122t115.143-100.286l49.714-28.571-15.429-54.857q-13.714-52-40-98.286 86.857 36 157.143 97.714l24.571 21.714 32.571-3.429q39.429-4.571 74.286-4.571 116.571 0 218 39.714t161.143 107.143 59.714 145.714-59.714 145.714-161.143 107.143-218 39.714-218-39.714-161.143-107.143-59.714-145.714z" />
<glyph unicode="&#xf0e6;" d="M0 499.81q0 79.429 53.714 146.857t146.571 106.571 202 39.143 202-39.143 146.571-106.571 53.714-146.857-53.714-146.857-146.571-106.571-202-39.143q-49.143 0-100.571 9.143-70.857-50.286-158.857-73.143-20.571-5.143-49.143-9.143h-1.714q-6.286 0-11.714 4.571t-6.571 12q-0.571 1.714-0.571 3.714t0.286 3.714 1.143 3.429l1.429 2.857t2 3.143 2.286 2.857 2.571 2.857 2.286 2.571q2.857 3.429 13.143 14.286t14.857 16.857 12.857 16.571 14.286 22 11.714 25.143q-70.857 41.143-111.429 101.143t-40.571 128zM73.143 499.81q0-46.857 30.286-90.286t85.143-75.429l55.429-32-20-48q19.429 11.429 35.429 22.286l25.143 17.714 30.286-5.714q44.571-8 87.429-8 87.429 0 163.429 29.714t120.857 80.571 44.857 109.143-44.857 109.143-120.857 80.571-163.429 29.714-163.429-29.714-120.857-80.571-44.857-109.143zM352 136.381q33.143-2.286 50.286-2.286 92 0 176.571 25.714t150.857 73.714q71.429 52.571 109.714 121.143t38.286 145.143q0 44-13.143 86.857 73.714-40.571 116.571-101.714t42.857-131.429q0-68.571-40.571-128.286t-111.429-100.857q5.714-13.714 11.714-25.143t14.286-22 12.857-16.571 14.857-16.857 13.143-14.286q0.571-0.571 2.286-2.571t2.571-2.857 2.286-2.857 2-3.143l1.429-2.857t1.143-3.429 0.286-3.714-0.571-3.714q-1.714-8-7.429-12.571t-12.571-4q-28.571 4-49.143 9.143-88 22.857-158.857 73.143-51.429-9.143-100.571-9.143-154.857 0-269.714 75.429z" />
<glyph unicode="&#xf0eb;" d="M0 609.524q0 56.571 25.429 105.429t66.857 81.143 93.714 50.857 106.571 18.571 106.571-18.571 93.714-50.857 66.857-81.143 25.429-105.429q0-88.571-58.857-153.143-25.714-28-42.571-49.714t-34-54.571-19.429-61.429q26.857-16 26.857-46.857 0-21.143-14.286-36.571 14.286-15.429 14.286-36.571 0-29.714-25.714-46.286 7.429-13.143 7.429-26.857 0-26.286-18-40.571t-44.286-14.286q-11.429-25.143-34.286-40t-49.714-14.857-49.714 14.857-34.286 40q-26.286 0-44.286 14.286t-18 40.571q0 13.714 7.429 26.857-25.714 16.571-25.714 46.286 0 21.143 14.286 36.571-14.286 15.429-14.286 36.571 0 30.857 26.857 46.857-2.286 28.571-19.429 61.429t-34 54.571-42.571 49.714q-58.857 64.571-58.857 153.143zM73.143 609.524q0-57.714 38.857-102.857 5.714-6.286 17.429-18.857t17.429-18.857q73.143-87.429 80.571-170.286h130.286q7.429 82.857 80.571 170.286 5.714 6.286 17.429 18.857t17.429 18.857q38.857 45.143 38.857 102.857 0 41.143-19.714 76.571t-51.429 58-70.286 35.429-78 12.857-78-12.857-70.286-35.429-51.429-58-19.714-76.571zM274.286 682.667q0 7.429 5.429 12.857t12.857 5.429q28.571 0 56.857-9.143t49.714-30.857 21.429-51.429q0-7.429-5.429-12.857t-12.857-5.429-12.857 5.429-5.429 12.857q0 26.286-30.857 40.571t-60.571 14.286q-7.429 0-12.857 5.429t-5.429 12.857z" horiz-adv-x="585" />
<glyph unicode="&#xf0f3;" d="M0 134.096q108.571 92 164 227.143t55.429 284.857q0 94.286 54.857 149.714t150.857 66.857q-4.571 10.286-4.571 21.143 0 22.857 16 38.857t38.857 16 38.857-16 16-38.857q0-10.857-4.571-21.143 96-11.429 150.857-66.857t54.857-149.714q0-149.714 55.429-284.857t164-227.143q0-29.714-21.714-51.429t-51.429-21.714h-256q0-60.571-42.857-103.429t-103.429-42.857-103.429 42.857-42.857 103.429h-256q-29.714 0-51.429 21.714t-21.714 51.429zM374.857 60.953q0-41.714 29.429-71.143t71.143-29.429q9.143 0 9.143 9.143t-9.143 9.143q-33.714 0-58 24.286t-24.286 58q0 9.143-9.143 9.143t-9.143-9.143z" horiz-adv-x="951" />
<glyph unicode="&#xf104;" d="M25.714 390.096q0 7.429 5.714 13.143l266.286 266.286q5.714 5.714 13.143 5.714t13.143-5.714l28.571-28.571q5.714-5.714 5.714-13.143t-5.714-13.143l-224.571-224.571 224.571-224.571q5.714-5.714 5.714-13.143t-5.714-13.143l-28.571-28.571q-5.714-5.714-13.143-5.714t-13.143 5.714l-266.286 266.286q-5.714 5.714-5.714 13.143z" horiz-adv-x="366" />
<glyph unicode="&#xf105;" d="M7.429 152.381q0 7.429 5.714 13.143l224.571 224.571-224.571 224.571q-5.714 5.714-5.714 13.143t5.714 13.143l28.571 28.571q5.714 5.714 13.143 5.714t13.143-5.714l266.286-266.286q5.714-5.714 5.714-13.143t-5.714-13.143l-266.286-266.286q-5.714-5.714-13.143-5.714t-13.143 5.714l-28.571 28.571q-5.714 5.714-5.714 13.143z" horiz-adv-x="366" />
<glyph unicode="&#xf106;" d="M44 262.096q0 7.429 5.714 13.143l266.286 266.286q5.714 5.714 13.143 5.714t13.143-5.714l266.286-266.286q5.714-5.714 5.714-13.143t-5.714-13.143l-28.571-28.571q-5.714-5.714-13.143-5.714t-13.143 5.714l-224.571 224.571-224.571-224.571q-5.714-5.714-13.143-5.714t-13.143 5.714l-28.571 28.571q-5.714 5.714-5.714 13.143z" horiz-adv-x="658" />
<glyph unicode="&#xf107;" d="M44 518.096q0 7.429 5.714 13.143l28.571 28.571q5.714 5.714 13.143 5.714t13.143-5.714l224.571-224.571 224.571 224.571q5.714 5.714 13.143 5.714t13.143-5.714l28.571-28.571q5.714-5.714 5.714-13.143t-5.714-13.143l-266.286-266.286q-5.714-5.714-13.143-5.714t-13.143 5.714l-266.286 266.286q-5.714 5.714-5.714 13.143z" horiz-adv-x="658" />
<glyph unicode="&#xf10c;" d="M0 426.667q0 119.429 58.857 220.286t159.714 159.714 220.286 58.857 220.286-58.857 159.714-159.714 58.857-220.286-58.857-220.286-159.714-159.714-220.286-58.857-220.286 58.857-159.714 159.714-58.857 220.286zM128 426.667q0-84.571 41.714-156t113.143-113.143 156-41.714 156 41.714 113.143 113.143 41.714 156-41.714 156-113.143 113.143-156 41.714-156-41.714-113.143-113.143-41.714-156z" />
<glyph unicode="&#xf110;" d="M0 426.667q0 37.714 26.857 64.571t64.571 26.857 64.571-26.857 26.857-64.571-26.857-64.571-64.571-26.857-64.571 26.857-26.857 64.571zM100.571 682.667q0 41.714 29.429 71.143t71.143 29.429 71.143-29.429 29.429-71.143-29.429-71.143-71.143-29.429-71.143 29.429-29.429 71.143zM118.857 170.667q0 34.286 24 58.286t58.286 24q33.714 0 58-24t24.286-58.286-24.286-58.286-58-24q-34.286 0-58.286 24t-24 58.286zM347.429 792.381q0 45.714 32 77.714t77.714 32 77.714-32 32-77.714-32-77.714-77.714-32-77.714 32-32 77.714zM384 60.953q0 30.286 21.429 51.714t51.714 21.429 51.714-21.429 21.429-51.714-21.429-51.714-51.714-21.429-51.714 21.429-21.429 51.714zM649.143 170.667q0 26.286 18.857 45.143t45.143 18.857 45.143-18.857 18.857-45.143-18.857-45.143-45.143-18.857-45.143 18.857-18.857 45.143zM667.429 682.667q0 18.857 13.429 32.286t32.286 13.429 32.286-13.429 13.429-32.286-13.429-32.286-32.286-13.429-32.286 13.429-13.429 32.286zM768 426.667q0 22.857 16 38.857t38.857 16 38.857-16 16-38.857-16-38.857-38.857-16-38.857 16-16 38.857z" horiz-adv-x="896" />
<glyph unicode="&#xf114;" d="M0 188.953v548.571q0 52.571 37.714 90.286t90.286 37.714h182.857q52.571 0 90.286-37.714t37.714-90.286v-18.286h384q52.571 0 90.286-37.714t37.714-90.286v-402.286q0-52.571-37.714-90.286t-90.286-37.714h-694.857q-52.571 0-90.286 37.714t-37.714 90.286zM73.143 188.953q0-22.857 16-38.857t38.857-16h694.857q22.857 0 38.857 16t16 38.857v402.286q0 22.857-16 38.857t-38.857 16h-402.286q-22.857 0-38.857 16t-16 38.857v36.571q0 22.857-16 38.857t-38.857 16h-182.857q-22.857 0-38.857-16t-16-38.857v-548.571z" horiz-adv-x="951" />
<glyph unicode="&#xf118;" d="M0 426.667q0 119.429 58.857 220.286t159.714 159.714 220.286 58.857 220.286-58.857 159.714-159.714 58.857-220.286-58.857-220.286-159.714-159.714-220.286-58.857-220.286 58.857-159.714 159.714-58.857 220.286zM73.143 426.667q0-74.286 29.143-142t78-116.571 116.571-78 142-29.143 142 29.143 116.571 78 78 116.571 29.143 142-29.143 142-78 116.571-116.571 78-142 29.143-142-29.143-116.571-78-78-116.571-29.143-142zM219.429 572.953q0 30.286 21.429 51.714t51.714 21.429 51.714-21.429 21.429-51.714-21.429-51.714-51.714-21.429-51.714 21.429-21.429 51.714zM229.714 324.381q-4.571 14.286 2.286 27.714t21.714 18q14.286 4.571 27.714-2.286t18-21.714q14.286-45.714 52.857-74t86.571-28.286 86.571 28.286 52.857 74q4.571 14.857 18.286 21.714t28 2.286 21.143-18 2.286-27.714q-21.143-69.143-78.857-111.429t-130.286-42.286-130.286 42.286-78.857 111.429zM512 572.953q0 30.286 21.429 51.714t51.714 21.429 51.714-21.429 21.429-51.714-21.429-51.714-51.714-21.429-51.714 21.429-21.429 51.714z" />
<glyph unicode="&#xf119;" d="M0 426.667q0 119.429 58.857 220.286t159.714 159.714 220.286 58.857 220.286-58.857 159.714-159.714 58.857-220.286-58.857-220.286-159.714-159.714-220.286-58.857-220.286 58.857-159.714 159.714-58.857 220.286zM73.143 426.667q0-74.286 29.143-142t78-116.571 116.571-78 142-29.143 142 29.143 116.571 78 78 116.571 29.143 142-29.143 142-78 116.571-116.571 78-142 29.143-142-29.143-116.571-78-78-116.571-29.143-142zM219.429 572.953q0 30.286 21.429 51.714t51.714 21.429 51.714-21.429 21.429-51.714-21.429-51.714-51.714-21.429-51.714 21.429-21.429 51.714zM229.714 236.381q21.143 69.143 78.857 111.429t130.286 42.286 130.286-42.286 78.857-111.429q4.571-14.286-2.286-27.714t-21.143-18-28 2.286-18.286 21.714q-14.286 45.714-52.857 74t-86.571 28.286-86.571-28.286-52.857-74q-4.571-14.857-18-21.714t-27.714-2.286q-14.857 4.571-21.714 18t-2.286 27.714zM512 572.953q0 30.286 21.429 51.714t51.714 21.429 51.714-21.429 21.429-51.714-21.429-51.714-51.714-21.429-51.714 21.429-21.429 51.714z" />
<glyph unicode="&#xf11c;" d="M0 134.096v512q0 30.286 21.429 51.714t51.714 21.429h950.857q30.286 0 51.714-21.429t21.429-51.714v-512q0-30.286-21.429-51.714t-51.714-21.429h-950.857q-30.286 0-51.714 21.429t-21.429 51.714zM73.143 134.096h950.857v512h-950.857v-512zM146.286 216.381v54.857q0 9.143 9.143 9.143h54.857q9.143 0 9.143-9.143v-54.857q0-9.143-9.143-9.143h-54.857q-9.143 0-9.143 9.143zM146.286 362.667v54.857q0 9.143 9.143 9.143h128q9.143 0 9.143-9.143v-54.857q0-9.143-9.143-9.143h-128q-9.143 0-9.143 9.143zM146.286 508.953v54.857q0 9.143 9.143 9.143h54.857q9.143 0 9.143-9.143v-54.857q0-9.143-9.143-9.143h-54.857q-9.143 0-9.143 9.143zM292.571 216.381v54.857q0 9.143 9.143 9.143h493.714q9.143 0 9.143-9.143v-54.857q0-9.143-9.143-9.143h-493.714q-9.143 0-9.143 9.143zM292.571 508.953v54.857q0 9.143 9.143 9.143h54.857q9.143 0 9.143-9.143v-54.857q0-9.143-9.143-9.143h-54.857q-9.143 0-9.143 9.143zM365.714 362.667v54.857q0 9.143 9.143 9.143h54.857q9.143 0 9.143-9.143v-54.857q0-9.143-9.143-9.143h-54.857q-9.143 0-9.143 9.143zM438.857 508.953v54.857q0 9.143 9.143 9.143h54.857q9.143 0 9.143-9.143v-54.857q0-9.143-9.143-9.143h-54.857q-9.143 0-9.143 9.143zM512 362.667v54.857q0 9.143 9.143 9.143h54.857q9.143 0 9.143-9.143v-54.857q0-9.143-9.143-9.143h-54.857q-9.143 0-9.143 9.143zM585.143 508.953v54.857q0 9.143 9.143 9.143h54.857q9.143 0 9.143-9.143v-54.857q0-9.143-9.143-9.143h-54.857q-9.143 0-9.143 9.143zM658.286 362.667v54.857q0 9.143 9.143 9.143h54.857q9.143 0 9.143-9.143v-54.857q0-9.143-9.143-9.143h-54.857q-9.143 0-9.143 9.143zM731.429 508.953v54.857q0 9.143 9.143 9.143h54.857q9.143 0 9.143-9.143v-54.857q0-9.143-9.143-9.143h-54.857q-9.143 0-9.143 9.143zM804.571 362.667v54.857q0 9.143 9.143 9.143h64v137.143q0 9.143 9.143 9.143h54.857q9.143 0 9.143-9.143v-201.143q0-9.143-9.143-9.143h-128q-9.143 0-9.143 9.143zM877.714 216.381v54.857q0 9.143 9.143 9.143h54.857q9.143 0 9.143-9.143v-54.857q0-9.143-9.143-9.143h-54.857q-9.143 0-9.143 9.143z" horiz-adv-x="1097" />
<glyph unicode="&#xf137;" d="M0 426.667q0 119.429 58.857 220.286t159.714 159.714 220.286 58.857 220.286-58.857 159.714-159.714 58.857-220.286-58.857-220.286-159.714-159.714-220.286-58.857-220.286 58.857-159.714 159.714-58.857 220.286zM197.714 426.667q0-14.857 10.857-25.714l259.429-259.429q10.857-10.857 25.714-10.857t25.714 10.857l58.286 58.286q10.857 10.857 10.857 25.714t-10.857 25.714l-175.429 175.429 175.429 175.429q10.857 10.857 10.857 25.714t-10.857 25.714l-58.286 58.286q-10.857 10.857-25.714 10.857t-25.714-10.857l-259.429-259.429q-10.857-10.857-10.857-25.714z" />
<glyph unicode="&#xf138;" d="M0 426.667q0 119.429 58.857 220.286t159.714 159.714 220.286 58.857 220.286-58.857 159.714-159.714 58.857-220.286-58.857-220.286-159.714-159.714-220.286-58.857-220.286 58.857-159.714 159.714-58.857 220.286zM289.143 225.524q0-14.857 10.857-25.714l58.286-58.286q10.857-10.857 25.714-10.857t25.714 10.857l259.429 259.429q10.857 10.857 10.857 25.714t-10.857 25.714l-259.429 259.429q-10.857 10.857-25.714 10.857t-25.714-10.857l-58.286-58.286q-10.857-10.857-10.857-25.714t10.857-25.714l175.429-175.429-175.429-175.429q-10.857-10.857-10.857-25.714z" />
<glyph unicode="&#xf139;" d="M0 426.667q0 119.429 58.857 220.286t159.714 159.714 220.286 58.857 220.286-58.857 159.714-159.714 58.857-220.286-58.857-220.286-159.714-159.714-220.286-58.857-220.286 58.857-159.714 159.714-58.857 220.286zM142.857 371.81q0-14.857 10.857-25.714l58.286-58.286q10.857-10.857 25.714-10.857t25.714 10.857l175.429 175.429 175.429-175.429q10.857-10.857 25.714-10.857t25.714 10.857l58.286 58.286q10.857 10.857 10.857 25.714t-10.857 25.714l-259.429 259.429q-10.857 10.857-25.714 10.857t-25.714-10.857l-259.429-259.429q-10.857-10.857-10.857-25.714z" />
<glyph unicode="&#xf13a;" d="M0 426.667q0 119.429 58.857 220.286t159.714 159.714 220.286 58.857 220.286-58.857 159.714-159.714 58.857-220.286-58.857-220.286-159.714-159.714-220.286-58.857-220.286 58.857-159.714 159.714-58.857 220.286zM142.857 481.524q0-14.857 10.857-25.714l259.429-259.429q10.857-10.857 25.714-10.857t25.714 10.857l259.429 259.429q10.857 10.857 10.857 25.714t-10.857 25.714l-58.286 58.286q-10.857 10.857-25.714 10.857t-25.714-10.857l-175.429-175.429-175.429 175.429q-10.857 10.857-25.714 10.857t-25.714-10.857l-58.286-58.286q-10.857-10.857-10.857-25.714z" />
<glyph unicode="&#xf141;" d="M0 408.381v109.714q0 22.857 16 38.857t38.857 16h109.714q22.857 0 38.857-16t16-38.857v-109.714q0-22.857-16-38.857t-38.857-16h-109.714q-22.857 0-38.857 16t-16 38.857zM292.571 408.381v109.714q0 22.857 16 38.857t38.857 16h109.714q22.857 0 38.857-16t16-38.857v-109.714q0-22.857-16-38.857t-38.857-16h-109.714q-22.857 0-38.857 16t-16 38.857zM585.143 408.381v109.714q0 22.857 16 38.857t38.857 16h109.714q22.857 0 38.857-16t16-38.857v-109.714q0-22.857-16-38.857t-38.857-16h-109.714q-22.857 0-38.857 16t-16 38.857z" horiz-adv-x="805" />
<glyph unicode="&#xf142;" d="M0 115.81v109.714q0 22.857 16 38.857t38.857 16h109.714q22.857 0 38.857-16t16-38.857v-109.714q0-22.857-16-38.857t-38.857-16h-109.714q-22.857 0-38.857 16t-16 38.857zM0 408.381v109.714q0 22.857 16 38.857t38.857 16h109.714q22.857 0 38.857-16t16-38.857v-109.714q0-22.857-16-38.857t-38.857-16h-109.714q-22.857 0-38.857 16t-16 38.857zM0 700.953v109.714q0 22.857 16 38.857t38.857 16h109.714q22.857 0 38.857-16t16-38.857v-109.714q0-22.857-16-38.857t-38.857-16h-109.714q-22.857 0-38.857 16t-16 38.857z" horiz-adv-x="219" />
<glyph unicode="&#xf14a;" d="M0 152.381v548.571q0 68 48.286 116.286t116.286 48.286h548.571q68 0 116.286-48.286t48.286-116.286v-548.571q0-68-48.286-116.286t-116.286-48.286h-548.571q-68 0-116.286 48.286t-48.286 116.286zM124.571 426.667q0-14.857 10.857-25.714l204.571-204.571q10.857-10.857 25.714-10.857t25.714 10.857l350.857 350.857q10.857 10.857 10.857 25.714t-10.857 25.714l-58.286 58.286q-10.857 10.857-25.714 10.857t-25.714-10.857l-266.857-266.857-120.571 120.571q-10.857 10.857-25.714 10.857t-25.714-10.857l-58.286-58.286q-10.857-10.857-10.857-25.714z" />
<glyph unicode="&#xf15b;" d="M0-30.476v914.286q0 22.857 16 38.857t38.857 16h457.143v-310.857q0-22.857 16-38.857t38.857-16h310.857v-603.429q0-22.857-16-38.857t-38.857-16h-768q-22.857 0-38.857 16t-16 38.857zM585.143 646.096v269.714q12.571-8 20.571-16l233.143-233.143q8-8 16-20.571h-269.714z" />
<glyph unicode="&#xf15c;" d="M0-30.476v914.286q0 22.857 16 38.857t38.857 16h457.143v-310.857q0-22.857 16-38.857t38.857-16h310.857v-603.429q0-22.857-16-38.857t-38.857-16h-768q-22.857 0-38.857 16t-16 38.857zM219.429 152.381q0-8 5.143-13.143t13.143-5.143h402.286q8 0 13.143 5.143t5.143 13.143v36.571q0 8-5.143 13.143t-13.143 5.143h-402.286q-8 0-13.143-5.143t-5.143-13.143v-36.571zM219.429 298.667q0-8 5.143-13.143t13.143-5.143h402.286q8 0 13.143 5.143t5.143 13.143v36.571q0 8-5.143 13.143t-13.143 5.143h-402.286q-8 0-13.143-5.143t-5.143-13.143v-36.571zM219.429 444.953q0-8 5.143-13.143t13.143-5.143h402.286q8 0 13.143 5.143t5.143 13.143v36.571q0 8-5.143 13.143t-13.143 5.143h-402.286q-8 0-13.143-5.143t-5.143-13.143v-36.571zM585.143 646.096v269.714q12.571-8 20.571-16l233.143-233.143q8-8 16-20.571h-269.714z" />
<glyph unicode="&#xf179;" d="M0 423.238q0 130.286 64.571 213.714 64 82.286 162.286 82.286 41.143 0 101.143-17.143 59.429-17.143 78.857-17.143 25.714 0 81.714 19.429 58.286 19.429 98.857 19.429 68 0 121.714-37.143 29.714-20.571 59.429-57.143-45.143-38.286-65.143-67.429-37.143-53.714-37.143-118.286 0-70.857 39.429-127.429t90.286-72q-22.286-71.429-70.286-142.857-73.714-112-146.857-112-28 0-80 18.286-49.143 18.286-86.286 18.286-34.857 0-81.143-18.857-46.286-19.429-75.429-19.429-86.857 0-172 148-84 149.143-84 287.429zM390.286 707.238q1.714 85.143 44.571 146.857 42.286 61.143 142.857 84.571 0.571-1.714 1.429-6.286t1.429-6.286q0-2.286 0.286-5.714t0.286-5.714q0-34.857-16.571-77.714-17.143-42.857-53.143-78.857-30.857-30.857-61.714-41.143-21.143-6.286-59.429-9.714z" horiz-adv-x="805" />
<glyph unicode="&#xf17b;" d="M0 253.524v245.714q0 24 17.143 41.143t41.714 17.143q24 0 41.143-17.143t17.143-41.143v-245.714q0-24.571-16.857-41.714t-41.429-17.143-41.714 17.143-17.143 41.714zM137.714 567.238q0 66.857 36.571 123.143t98.286 87.714l-40.571 74.857q-4 7.429 2.857 11.429 7.429 3.429 11.429-3.429l41.143-75.429q54.286 24 114.857 24t114.857-24l41.143 75.429q4 6.857 11.429 3.429 6.857-4 2.857-11.429l-40.571-74.857q61.143-31.429 97.714-87.714t36.571-123.143h-528.571zM140 166.096v380.571h524.571v-380.571q0-26.286-18.286-44.571t-44-18.286h-42.857v-129.714q0-24.571-17.143-41.714t-41.714-17.143-41.714 17.143-17.143 41.714v129.714h-78.857v-129.714q0-24.571-17.143-41.714t-41.714-17.143q-24 0-41.143 17.143t-17.143 41.714l-0.571 129.714h-42.286q-26.286 0-44.571 18.286t-18.286 44.571zM260 684.953q0-9.143 6.286-15.714t15.429-6.571 15.714 6.571 6.571 15.714-6.571 15.714-15.714 6.571-15.429-6.571-6.286-15.714zM500.571 684.953q0-9.143 6.571-15.714t15.714-6.571 15.429 6.571 6.286 15.714-6.286 15.714-15.429 6.571-15.714-6.571-6.571-15.714zM687.429 253.524v245.714q0 24.571 17.143 41.429t41.143 16.857q24.571 0 41.714-16.857t17.143-41.429v-245.714q0-24.571-17.143-41.714t-41.714-17.143q-24 0-41.143 17.143t-17.143 41.714z" horiz-adv-x="805" />
<glyph unicode="&#xf188;" d="M18.286 390.096q0 14.857 10.857 25.714t25.714 10.857h128v168l-98.857 98.857q-10.857 10.857-10.857 25.714t10.857 25.714 25.714 10.857 25.714-10.857l98.857-98.857h482.286l98.857 98.857q10.857 10.857 25.714 10.857t25.714-10.857 10.857-25.714-10.857-25.714l-98.857-98.857v-168h128q14.857 0 25.714-10.857t10.857-25.714-10.857-25.714-25.714-10.857h-128q0-97.714-38.286-165.714l118.857-119.429q10.857-10.857 10.857-25.714t-10.857-25.714q-10.286-10.857-25.714-10.857t-25.714 10.857l-113.143 112.571q-2.857-2.857-8.571-7.429t-24-16.286-37.143-20.857-46.857-16.571-55.429-7.429v512h-73.143v-512q-29.143 0-58 7.714t-49.714 18.857-37.714 22.286-24.857 18.571l-8.571 8-104.571-118.286q-11.429-12-27.429-12-13.714 0-24.571 9.143-10.857 10.286-11.714 25.429t8.857 26.571l115.429 129.714q-33.143 65.143-33.143 156.571h-128q-14.857 0-25.714 10.857t-10.857 25.714zM292.571 719.238q0 76 53.429 129.429t129.429 53.429 129.429-53.429 53.429-129.429h-365.714z" horiz-adv-x="951" />
<glyph unicode="&#xf192;" d="M0 426.667q0 119.429 58.857 220.286t159.714 159.714 220.286 58.857 220.286-58.857 159.714-159.714 58.857-220.286-58.857-220.286-159.714-159.714-220.286-58.857-220.286 58.857-159.714 159.714-58.857 220.286zM128 426.667q0-84.571 41.714-156t113.143-113.143 156-41.714 156 41.714 113.143 113.143 41.714 156-41.714 156-113.143 113.143-156 41.714-156-41.714-113.143-113.143-41.714-156zM292.571 426.667q0 60.571 42.857 103.429t103.429 42.857 103.429-42.857 42.857-103.429-42.857-103.429-103.429-42.857-103.429 42.857-42.857 103.429z" />
<glyph unicode="&#xf1b2;" d="M0 207.238v438.857q0 22.857 13.143 41.714t34.857 26.857l402.286 146.286q12.571 4.571 25.143 4.571t25.143-4.571l402.286-146.286q21.714-8 34.857-26.857t13.143-41.714v-438.857q0-20-10.286-37.143t-28-26.857l-402.286-219.429q-16-9.143-34.857-9.143t-34.857 9.143l-402.286 219.429q-17.714 9.714-28 26.857t-10.286 37.143zM76.571 647.238l398.857-145.143 398.857 145.143-398.857 145.143zM512 7.81l365.714 199.429v363.429l-365.714-133.143v-429.714z" />
<glyph unicode="&#xf1b3;" d="M0 115.81v237.714q0 21.714 12.286 40t32.286 27.429l248 106.286v228.571q0 21.714 12.286 40t32.286 27.429l256 109.714q13.143 5.714 28.571 5.714t28.571-5.714l256-109.714q20-9.143 32.286-27.429t12.286-40v-228.571l248-106.286q20.571-9.143 32.571-27.429t12-40v-237.714q0-20.571-10.857-38.286t-29.714-26.857l-256-128q-14.286-8-32.571-8t-32.571 8l-256 128q-2.857 1.143-4 2.286-1.143-1.143-4-2.286l-256-128q-14.286-8-32.571-8t-32.571 8l-256 128q-18.857 9.143-29.714 26.857t-10.857 38.286zM98.286 364.381l230.857-98.857 230.857 98.857-230.857 98.857zM365.714 6.096l219.429 109.714v179.429l-219.429-93.714v-195.429zM369.714 757.524l252-108 252 108-252 108zM658.286 432.953l219.429 94.286v152l-219.429-93.714v-152.571zM683.429 364.381l230.857-98.857 230.857 98.857-230.857 98.857zM950.857 6.096l219.429 109.714v179.429l-219.429-93.714v-195.429z" horiz-adv-x="1317" />
<glyph unicode="&#xf1d6;" d="M10.286 211.81q0 157.143 144 266.286-4.571 10.857-4.571 29.714 0 11.429 6.286 28t13.714 25.714q-0.571 12.571 4.286 30.286t12.857 24.571q0 79.429 52.857 164.857t124.286 119.714q79.429 37.714 185.143 37.714 76 0 152-31.429 28-12 51.429-27.429t40.571-32 31.429-38.857 24-42.286 18.571-48.286 14.571-51.143 12.571-56l0.571-2.857q31.429-47.429 31.429-85.714 0-8-5.143-22.857t-5.143-21.714q0-0.571 0.857-2t2-2.857 1.143-2q44-65.143 68.857-122.571t24.857-119.143q0-24.571-11.143-57.143t-31.714-32.571q-5.143 0-11.143 4.286t-10.857 10-10.857 14.857-9.143 15.143-7.714 14.857-5.143 10q-0.571 0.571-1.714 0.571l-2.857-2.286q-33.714-88-75.429-127.429 11.429-11.429 35.143-22t39.429-23.714 20.286-37.143q-1.143-2.286-2.286-9.143t-4-10.286q-36.571-55.429-172.571-55.429-30.286 0-63.143 5.143t-56 11.429-59.714 17.143q-8.571 2.857-13.143 4-8 2.286-26.286 2.571t-22.857 0.857q-23.429-25.714-72.857-37.143t-96.286-11.429q-20 0-39.429 0.857t-53.143 5.143-57.714 11.714-42.571 22.857-18.571 36.571q0 22.857 5.714 34t23.429 27.714q6.286 1.143 23.143 7.429t28.286 6.857q2.286 0 8 1.143 1.143 1.143 1.143 2.286l-1.143 1.714q-27.429 6.286-61.714 60.286t-41.714 89.429l-2.857 1.714q-2.286 0-6.857-11.429-10.286-23.429-31.143-42.571t-44.286-21.429h-0.571q-2.286 0-3.429 2.571t-2.857 3.143q-13.143 30.857-13.143 57.143z" />
<glyph unicode="&#xf1d7;" d="M0 551.238q0 96.571 55.714 177.714t150.857 127.714 207.714 46.571q100.571 0 190-37.714t149.714-104.286 78-148.857q-17.714 2.286-40 2.286-96.571 0-177.714-44t-127.714-119.143-46.571-164.286q0-44.571 13.143-86.857-20-1.714-38.857-1.714-14.857 0-28.571 0.857t-31.429 3.714-25.429 4-31.143 6-28.571 6l-144.571-72.571 41.143 124.571q-165.714 116-165.714 280zM217.143 675.238q0-22.286 18.857-36.857t43.429-14.571q23.429 0 37.714 14t14.286 37.429-14.286 37.714-37.714 14.286q-24.571 0-43.429-14.571t-18.857-37.429zM466.286 291.81q0 81.714 46.571 150.857t127.714 109.429 177.714 40.286q92 0 173.143-40.286t130-109.714 48.857-150.571q0-66.857-39.143-127.714t-106-110.571l31.429-103.429-113.714 62.286q-85.714-21.143-124.571-21.143-96.571 0-177.714 40.286t-127.714 109.429-46.571 150.857zM507.429 675.238q0-22.286 18.857-36.857t43.429-14.571q23.429 0 37.429 14t14 37.429-14 37.714-37.429 14.286q-24.571 0-43.429-14.571t-18.857-37.429zM662.857 385.524q0-16 12.857-28.857t28.286-12.857q22.857 0 37.429 12.571t14.571 29.143q0 16-14.571 28.571t-37.429 12.571q-15.429 0-28.286-12.857t-12.857-28.286zM890.857 385.524q0-16 12.857-28.857t28.286-12.857q22.286 0 37.143 12.571t14.857 29.143q0 16-14.857 28.571t-37.143 12.571q-15.429 0-28.286-12.857t-12.857-28.286z" horiz-adv-x="1170" />
<glyph unicode="&#xf1da;" d="M0 536.381v256q0 24 22.857 33.714 22.286 9.714 39.429-8l74.286-73.714q61.143 57.714 139.714 89.429t162.571 31.714q89.143 0 170.286-34.857t140-93.714 93.714-140 34.857-170.286-34.857-170.286-93.714-140-140-93.714-170.286-34.857q-98.286 0-186.857 41.429t-150.857 116.857q-4 5.714-3.714 12.857t4.857 11.714l78.286 78.857q5.714 5.143 14.286 5.143 9.143-1.143 13.143-6.857 41.714-54.286 102.286-84t128.571-29.714q59.429 0 113.429 23.143t93.429 62.571 62.571 93.429 23.143 113.429-23.143 113.429-62.571 93.429-93.429 62.571-113.429 23.143q-56 0-107.429-20.286t-91.429-58l78.286-78.857q17.714-17.143 8-39.429-9.714-22.857-33.714-22.857h-256q-14.857 0-25.714 10.857t-10.857 25.714zM292.571 335.238v36.571q0 8 5.143 13.143t13.143 5.143h128v201.143q0 8 5.143 13.143t13.143 5.143h36.571q8 0 13.143-5.143t5.143-13.143v-256q0-8-5.143-13.143t-13.143-5.143h-182.857q-8 0-13.143 5.143t-5.143 13.143z" />
<glyph unicode="&#xf1de;" d="M0 481.524v36.571q0 22.857 16 38.857t38.857 16h182.857q22.857 0 38.857-16t16-38.857v-36.571q0-22.857-16-38.857t-38.857-16h-182.857q-22.857 0-38.857 16t-16 38.857zM73.143 6.096v384h146.286v-384q0-8-5.143-13.143t-13.143-5.143h-109.714q-8 0-13.143 5.143t-5.143 13.143zM73.143 609.524v237.714q0 8 5.143 13.143t13.143 5.143h109.714q8 0 13.143-5.143t5.143-13.143v-237.714h-146.286zM292.571 188.953v36.571q0 22.857 16 38.857t38.857 16h182.857q22.857 0 38.857-16t16-38.857v-36.571q0-22.857-16-38.857t-38.857-16h-182.857q-22.857 0-38.857 16t-16 38.857zM365.714 97.524h146.286v-91.429q0-8-5.143-13.143t-13.143-5.143h-109.714q-8 0-13.143 5.143t-5.143 13.143v91.429zM365.714 316.953v530.286q0 8 5.143 13.143t13.143 5.143h109.714q8 0 13.143-5.143t5.143-13.143v-530.286h-146.286zM585.143 627.81v36.571q0 22.857 16 38.857t38.857 16h182.857q22.857 0 38.857-16t16-38.857v-36.571q0-22.857-16-38.857t-38.857-16h-182.857q-22.857 0-38.857 16t-16 38.857zM658.286 6.096v530.286h146.286v-530.286q0-8-5.143-13.143t-13.143-5.143h-109.714q-8 0-13.143 5.143t-5.143 13.143zM658.286 755.81v91.429q0 8 5.143 13.143t13.143 5.143h109.714q8 0 13.143-5.143t5.143-13.143v-91.429h-146.286z" />
<glyph unicode="&#xf1e0;" d="M0 426.667q0 76 53.429 129.429t129.429 53.429q72 0 124.571-49.143l205.714 102.857q-1.143 12.571-1.143 19.429 0 76 53.429 129.429t129.429 53.429 129.429-53.429 53.429-129.429-53.429-129.429-129.429-53.429q-72 0-124.571 49.143l-205.714-102.857q1.143-12.571 1.143-19.429t-1.143-19.429l205.714-102.857q52.571 49.143 124.571 49.143 76 0 129.429-53.429t53.429-129.429-53.429-129.429-129.429-53.429-129.429 53.429-53.429 129.429q0 6.857 1.143 19.429l-205.714 102.857q-52.571-49.143-124.571-49.143-76 0-129.429 53.429t-53.429 129.429z" />
</font>
</defs>
</svg>
